<svg width="82" height="82" viewBox="0 0 82 82" fill="none" xmlns="http://www.w3.org/2000/svg">
<path d="M28.4533 76.3501C10.4856 69.9734 0.161597 51.1307 4.45795 32.5554C8.75431 13.98 26.3036 1.58428 45.2465 3.74477C64.1894 5.90526 78.4967 21.9343 78.5 41.0001" stroke="#C3C3C3" stroke-width="6" stroke-linecap="round" stroke-linejoin="round"/>
<path d="M31.9633 4.59668C26.8933 12.04 23.5 25.5567 23.5 41C23.3115 51.1841 24.4741 58.444 28 68" stroke="#C3C3C3" stroke-width="6" stroke-linecap="round" stroke-linejoin="round"/>
<path d="M3.58334 38.5001H43.5" stroke="#C3C3C3" stroke-width="6" stroke-linecap="round" stroke-linejoin="round"/>
<path d="M10.9967 18.5001H71" stroke="#C3C3C3" stroke-width="6" stroke-linecap="round" stroke-linejoin="round"/>
<path d="M7.82666 58.5001H33.5" stroke="#C3C3C3" stroke-width="6" stroke-linecap="round" stroke-linejoin="round"/>
<path d="M50.0367 4.59668C54.3333 11.8562 56.9528 19.9844 57.7033 28.3867" stroke="#C3C3C3" stroke-width="6" stroke-linecap="round" stroke-linejoin="round"/>
<path d="M58.5 68.5001C59.1904 68.5001 59.75 69.0598 59.75 69.7501C59.75 70.4405 59.1904 71.0001 58.5 71.0001C57.8096 71.0001 57.25 70.4405 57.25 69.7501C57.25 69.0598 57.8096 68.5001 58.5 68.5001" stroke="#C3C3C3" stroke-width="6" stroke-linecap="round" stroke-linejoin="round"/>
<path d="M58.5 61.0001V51.0001" stroke="#C3C3C3" stroke-width="6" stroke-linecap="round" stroke-linejoin="round"/>
<path fill-rule="evenodd" clip-rule="evenodd" d="M77.8767 69.9434C78.7927 71.7766 78.6944 73.9533 77.6168 75.6963C76.5392 77.4394 74.6359 78.5002 72.5867 78.5001H44.4133C42.3641 78.5002 40.4608 77.4394 39.3832 75.6963C38.3056 73.9533 38.2073 71.7766 39.1233 69.9434L53.21 41.7701C54.2113 39.7657 56.2594 38.4994 58.5 38.4994C60.7406 38.4994 62.7887 39.7657 63.79 41.7701L77.8767 69.9434Z" stroke="#C3C3C3" stroke-width="6" stroke-linecap="round" stroke-linejoin="round"/>
</svg>
