<svg width="12" height="12" viewBox="0 0 12 12" fill="none" xmlns="http://www.w3.org/2000/svg">
<path fill-rule="evenodd" clip-rule="evenodd" d="M7.4141 6.00025L11.7071 1.70725C12.0981 1.31625 12.0981 0.68425 11.7071 0.29325C11.3161 -0.09775 10.6841 -0.09775 10.2931 0.29325L6.0001 4.58625L1.7071 0.29325C1.3161 -0.09775 0.684097 -0.09775 0.293097 0.29325C-0.0979026 0.68425 -0.0979026 1.31625 0.293097 1.70725L4.5861 6.00025L0.293097 10.2933C-0.0979026 10.6842 -0.0979026 11.3162 0.293097 11.7072C0.488097 11.9022 0.744097 12.0002 1.0001 12.0002C1.2561 12.0002 1.5121 11.9022 1.7071 11.7072L6.0001 7.41425L10.2931 11.7072C10.4881 11.9022 10.7441 12.0002 11.0001 12.0002C11.2561 12.0002 11.5121 11.9022 11.7071 11.7072C12.0981 11.3162 12.0981 10.6842 11.7071 10.2933L7.4141 6.00025Z" fill="#212B36"/>
</svg>
