<svg width="106" height="41" viewBox="0 0 106 41" fill="none" xmlns="http://www.w3.org/2000/svg">
<path fill-rule="evenodd" clip-rule="evenodd" d="M69.5043 19.2225L72.329 21.6285L71.8796 24.424H76.5613L75.9243 28.4723H65.832L68.1706 13.6667H78.1057L77.4666 17.7105H72.94L72.7105 19.2225H69.5043Z" fill="#17170E"/>
<path fill-rule="evenodd" clip-rule="evenodd" d="M104.337 13.6667C105.263 13.6667 106.001 14.4237 106.001 15.3705C106.001 16.3332 105.263 17.0834 104.331 17.0834C103.403 17.0834 102.653 16.3332 102.653 15.3705C102.653 14.4237 103.403 13.6667 104.331 13.6667H104.337ZM104.331 13.9318C103.585 13.9318 102.976 14.5755 102.976 15.3705C102.976 16.1813 103.585 16.8184 104.337 16.8184C105.091 16.8251 105.693 16.1813 105.693 15.3784C105.693 14.5755 105.091 13.9318 104.337 13.9318H104.331ZM104.015 16.3634H103.713V14.4624C103.871 14.4394 104.022 14.417 104.248 14.417C104.533 14.417 104.722 14.4757 104.835 14.561C104.948 14.6439 105.008 14.7728 105.008 14.9549C105.008 15.2036 104.842 15.3566 104.639 15.4165V15.4304C104.805 15.4619 104.917 15.6132 104.954 15.8933C105.001 16.1886 105.045 16.3029 105.076 16.3634H104.759C104.713 16.3029 104.669 16.1293 104.63 15.8788C104.586 15.6356 104.466 15.5466 104.225 15.5466H104.015V16.3634ZM104.015 15.31H104.232C104.481 15.31 104.691 15.2193 104.691 14.9839C104.691 14.8175 104.569 14.6511 104.232 14.6511C104.135 14.6511 104.067 14.6578 104.015 14.6651V15.31Z" fill="#17170E"/>
<path fill-rule="evenodd" clip-rule="evenodd" d="M36.7221 28.4722H30.127L38.8007 11.3889H45.693L49.0954 28.4722H42.4992L42.2691 26.3426H37.5612L36.7221 28.4722ZM41.8222 22.2876L41.5737 19.2733C41.5077 18.5505 41.5108 17.8012 41.5149 17.0764H41.2863L39.3202 22.2876H41.8222Z" fill="#17170E"/>
<path fill-rule="evenodd" clip-rule="evenodd" d="M52.5705 13.6667H58.0812C63.0807 13.6667 66.5666 15.8467 65.6995 21.2842C64.998 25.6825 61.4324 28.4723 57.065 28.4723H50.2109L52.5705 13.6667ZM56.3306 24.0351H56.6679C58.4649 24.0351 59.9785 23.2102 60.2891 21.2678C60.6203 19.186 59.5567 18.3017 57.5798 18.3017H57.2445L56.3306 24.0351Z" fill="#17170E"/>
<path fill-rule="evenodd" clip-rule="evenodd" d="M79.4521 23.8316L79.7086 24.0584C80.6079 24.8353 81.7377 25.4707 83.0542 25.4707C83.6181 25.4707 84.5536 25.2467 84.6666 24.5493C84.7785 23.8519 84.0374 23.7895 83.531 23.6876L82.4151 23.4832C80.2409 23.0932 78.5684 21.8009 78.9592 19.3849C79.5516 15.7156 83.29 13.6667 86.7185 13.6667C88.5154 13.6667 90.0977 14.0957 91.4955 15.0204L89.3104 18.973C88.4329 18.3173 87.4093 17.804 86.1748 17.804C85.672 17.804 84.9128 17.9886 84.8086 18.6262C84.7168 19.1982 85.4119 19.2825 85.8363 19.3849L87.0854 19.6725C89.4244 20.204 90.9762 21.476 90.5512 24.0995C89.9552 27.7869 86.2328 29.6112 82.8241 29.6112C80.8385 29.6112 78.6249 29.0782 76.9902 28.1967L79.4521 23.8316Z" fill="#17170E"/>
<path fill-rule="evenodd" clip-rule="evenodd" d="M93.9688 28.4723H88.1475L95.8034 13.6667H101.882L104.884 28.4723H99.063L98.8603 26.6235H94.7069L93.9688 28.4723ZM98.468 23.1115L98.246 20.4996C98.1896 19.8724 98.1948 19.2243 98.1948 18.5956H97.9947L96.2584 23.1115H98.468Z" fill="#17170E"/>
<mask id="mask0" mask-type="alpha" maskUnits="userSpaceOnUse" x="0" y="0" width="79" height="41">
<path fill-rule="evenodd" clip-rule="evenodd" d="M39.271 0.254395H0.03125V40.969H78.5108V0.254395H39.271Z" fill="white"/>
</mask>
<g mask="url(#mask0)">
<path fill-rule="evenodd" clip-rule="evenodd" d="M76.6644 24.3618L76.407 21.8131L78.5107 20.3096L76.2624 20.3226L75.9051 18.3369L74.6961 20.3205L72.1961 20.2914L72.1895 20.3226L73.9634 21.8152L72.8498 24.3681L75.0852 22.7094L76.6644 24.3618Z" fill="#008188"/>
<path fill-rule="evenodd" clip-rule="evenodd" d="M21.4836 9.84839C21.4836 9.84839 23.035 7.75169 23.4144 7.23685C23.8538 6.6395 25.1197 5.38199 25.1197 5.38199L26.6794 3.90807L25.9959 5.48423C25.9959 5.48423 25.4438 7.55758 25.311 8.12899C25.1777 8.70455 24.8367 10.8106 24.8367 10.8106L24.6988 12.0883L24.5609 14.593L24.6988 14.5125L24.6783 14.3542L24.7772 13.5597L25.1105 11.5527L25.2556 10.8755C25.2556 10.8755 25.8268 8.58466 26.059 7.91101C26.2933 7.23685 27.0101 5.63422 27.0101 5.63422L27.4264 4.83913L28.2673 3.4716L28.8861 2.63447L29.3306 2.14143L29.7792 1.7989L30.2919 1.50619L32.8022 0.254395L31.7998 1.34582L31.0302 2.31322L30.2099 3.43164L29.7244 4.24956L29.0978 5.48008L28.8656 5.99647C28.8656 5.99647 28.2062 7.5062 27.975 8.18037C27.7397 8.8535 27.0942 11.2678 27.0942 11.2678L26.7947 12.6421L26.5174 15.1898L26.3261 17.8278L26.3405 19.0039L26.4682 20.4451L26.8153 23.1506L27.3439 25.9847L27.8571 28.4302L28.4339 30.6805L28.8784 32.264L27.388 31.4092L26.6209 29.722L26.0113 28.3114L25.1479 26.17L24.5045 24.4994L23.0509 23.7464L20.874 22.6331L18.1458 21.0035L16.941 20.0901L16.2042 19.4756L16.7149 18.3416L17.4973 16.7758L18.9308 18.6603L20.2064 20.1721L20.3433 20.2515L20.2854 20.0709L19.9537 19.3365L19.5353 18.5331L19.0272 17.5507L18.2248 15.524L18.8898 14.0771L19.7927 12.4272L20.2264 13.8565L20.7786 15.2895L21.462 16.876L23.2427 20.3454L23.2755 20.3299L23.3093 20.2992L23.3252 20.2515L23.0802 19.3355L22.7182 18.0671L22.0091 15.3844L21.48 12.2264L21.4395 10.8485V10.5459C21.4395 10.4198 21.4836 9.84839 21.4836 9.84839ZM0.993632 15.3414L0.980302 15.3066L0.398376 13.2379L0.186627 12.216L0.0794701 11.0971L0 8.8509L1.10284 10.3726L2.1662 11.682L2.73787 12.3068L3.07626 12.6328C3.07626 12.6328 4.65643 14.3672 7.13488 16.0207L8.8622 17.1921L11.0238 18.5627L14.3395 20.4472L17.7941 22.3352L19.7168 23.2481L21.0411 23.8849L22.1896 24.4169L23.4652 24.995L24.423 27.0404L25.9334 30.4164L27.6233 33.8116L29.0548 36.7921L30.1058 38.9055L30.3104 39.3113L31.0149 40.7619L31.1138 41.0001L30.3094 40.8423L29.6403 40.6845L29.0917 40.5019L28.3201 40.1536L27.6792 39.7903L27.573 39.7094L26.7783 39.0918H27.7187L27.793 39.0944L27.8622 39.0887L27.9894 39.0627L28.1114 39.0144L28.1129 38.9703L28.0842 38.9335L28.0273 38.893L27.9212 38.8468L27.7653 38.7949L27.5438 38.7363L26.5953 38.5256L25.8575 38.2993L25.2269 37.9407L24.7772 37.5659L24.5127 37.2276L24.1886 36.8316L23.5011 36.0355L25.8575 36.6313L26.8081 36.8529L27.4054 36.9686H27.4946L27.5602 36.9572L27.6079 36.9286L27.6407 36.8689L27.6515 36.8316L27.651 36.7869L27.6346 36.7371L27.5905 36.6852L27.5207 36.6266L27.4146 36.5627L27.267 36.4916L27.0711 36.4117L23.6585 35.0634L19.9911 33.4343L17.4409 32.1238L15.831 31.2322L14.9501 30.6551L17.4593 30.2186L19.2646 29.8211L20.5986 29.4241L20.6376 29.3457L17.6352 29.5216L14.5374 29.6026L13.3012 29.5839L9.82763 26.9008L7.00413 24.4797L5.63058 23.108L4.76667 22.1375L8.6325 23.3685L11.3576 24.1605L14.0462 24.8368L15.6756 25.1331L15.8971 25.1642L16.0504 25.1746L16.095 25.1507L16.1263 25.1087L16.0504 25.0563L13.4192 24.2025L9.43541 22.7504L5.8854 21.1608L4.24473 20.28C2.45947 19.3671 0.993632 15.3414 0.993632 15.3414ZM22.3055 38.3813L21.1975 38.004L21.2262 37.8623L21.2954 37.6033L21.5656 36.7086L21.5979 36.541V36.4859L21.5933 36.4423L21.5656 36.3827L21.4441 36.4517L21.1719 36.6313L20.4336 37.158L20.2449 37.266L20.0947 37.335L19.9649 37.3807L18.4837 36.6826L17.8126 36.242L17.3988 35.9322L18.9293 35.6592L19.0877 35.6379L19.14 35.626L19.1938 35.5834L19.1897 35.545L19.1508 35.4791L19.1118 35.4589L19.0656 35.4459L19.0103 35.4423L18.8775 35.4314L18.7298 35.407L18.1976 35.3468L17.4245 35.284L15.8443 35.0842L15.5741 34.8106L14.6122 33.9372L13.8944 33.1919L13.4535 32.6885L13.9447 32.9127L16.1411 33.7618L20.4561 35.2103L21.2016 35.4801L21.6538 35.6831L21.8035 35.7754L21.9194 35.8699L22.0189 35.9706L22.1106 36.0837L22.1875 36.1969L22.2378 36.3017L22.267 36.4029L22.2798 36.4927V36.6754L22.2808 36.884L22.3055 38.3813ZM33.682 35.9882L34.5356 36.5275L35.0509 36.871L35.2319 37.0039L35.3309 37.0916L35.3791 37.1611L35.4231 37.2525L35.497 37.4658L35.558 37.6832L35.6057 37.8431L35.6354 37.8997L35.6749 37.9474L35.7277 37.9926L35.7933 38.0398L35.9543 38.1405L36.1553 38.2806L36.3788 38.4685L36.5932 38.6927L36.689 38.8141L36.7741 38.9376L36.8454 39.0674L36.9023 39.1925L36.9167 39.2579L36.9315 39.3248L36.9356 39.4577L36.9213 39.5874L36.8962 39.7094L36.8326 39.8946L36.7998 39.9652L36.3906 39.5713L36.3414 39.5288L36.2845 39.4955L36.1481 39.4359L35.801 39.3341L34.6854 39.0144L33.0165 38.4576L31.989 38.1332L30.4452 37.6433L29.1322 35.0452L28.1893 33.0778L27.9145 32.4607L28.8564 32.9999L30.779 34.1681L33.5061 35.8782L33.682 35.9882Z" fill="#008188"/>
</g>
</svg>
