<svg width="62" height="19" viewBox="0 0 62 19" fill="none" xmlns="http://www.w3.org/2000/svg">
<path d="M1.69112 9.00353H0V7.32294H5.11285V9.00353H3.3954V19L1.69112 17.9086V9.00353Z" fill="black"/>
<path d="M5.70276 9.52561H7.21645V10.1692H7.24289C7.42797 9.87787 7.63288 9.6611 7.86423 9.52561C8.09558 9.38335 8.38642 9.31561 8.72353 9.31561L8.84912 9.30206V10.955C8.78963 10.9617 8.73014 10.9685 8.67726 10.9753C8.61777 10.9821 8.55828 10.9888 8.49879 11.0092C8.37981 11.0363 8.26744 11.0701 8.14846 11.1176C8.02948 11.165 7.93033 11.2259 7.83779 11.3005C7.62627 11.4698 7.50068 11.673 7.44119 11.8966C7.38831 12.1201 7.36187 12.364 7.36187 12.6214C7.36187 12.6553 7.36187 12.6892 7.36187 12.7163C7.36187 12.7434 7.36187 12.7772 7.36187 12.8111V16.625H5.70276V9.52561Z" fill="black"/>
<path fill-rule="evenodd" clip-rule="evenodd" d="M15.1543 16.5864H16.7151V9.5183H15.1543V10.5251C14.8773 10.1264 14.526 9.82237 14.1206 9.6129C13.7152 9.40342 13.2693 9.30206 12.7828 9.30206C12.2626 9.30206 11.7829 9.39666 11.3437 9.59938C10.9045 9.8021 10.5059 10.1062 10.1478 10.5251C9.82349 10.89 9.59377 11.2819 9.45188 11.7009C9.31 12.1131 9.24243 12.5726 9.24243 13.0659C9.24243 13.5591 9.31675 14.0321 9.47215 14.4714C9.62079 14.9173 9.837 15.3093 10.1208 15.6471C10.4248 16.0188 10.7964 16.3026 11.2423 16.5121C11.6815 16.7148 12.1747 16.8229 12.722 16.8229C12.7963 16.8229 12.8774 16.8161 12.9585 16.8094C13.0328 16.797 13.1072 16.7903 13.1764 16.784C13.1826 16.7835 13.1888 16.7829 13.1949 16.7824C13.5733 16.7148 13.9314 16.5796 14.2827 16.3837C14.6341 16.1877 14.9178 15.9377 15.1273 15.6269H15.1543V16.5864ZM14.5394 11.5455C14.9178 11.951 15.1069 12.4442 15.1069 13.0321V13.0456C15.1069 13.6538 14.9178 14.1538 14.5326 14.566C14.1475 14.9782 13.6543 15.1742 13.0395 15.1674C12.4719 15.1742 11.9787 14.9782 11.5666 14.5863C11.1477 14.1944 10.945 13.7078 10.945 13.1267C10.945 12.5051 11.1409 11.9847 11.5395 11.5658C11.9382 11.1468 12.4449 10.9441 13.0665 10.9509C13.6678 10.9441 14.161 11.1401 14.5394 11.5455Z" fill="black"/>
<path fill-rule="evenodd" clip-rule="evenodd" d="M23.4519 16.5926H24.9612V5.9375L23.3069 7.12968V10.2388C23.0565 9.94079 22.7533 9.71048 22.3908 9.54791C22.0284 9.38534 21.6593 9.29728 21.277 9.27696H21.2309H21.1782H21.0859C21.0595 9.27696 21.0266 9.28373 20.9936 9.29051L20.9936 9.29051C20.5455 9.3176 20.1105 9.43953 19.6953 9.65629C19.2801 9.87305 18.9242 10.1508 18.6342 10.4827C18.3245 10.8417 18.0938 11.2481 17.9356 11.6952C17.7775 12.1423 17.6984 12.6029 17.6984 13.0838C17.6984 13.5512 17.784 14.005 17.9488 14.4521C18.1136 14.8992 18.3442 15.292 18.6342 15.6443C18.9374 16.0033 19.3065 16.2878 19.7283 16.5045C20.1566 16.7145 20.618 16.8229 21.1255 16.8229H21.1716H21.2045C21.6461 16.8161 22.0679 16.7145 22.4699 16.5113C22.872 16.3081 23.1949 16.0168 23.4256 15.6307H23.4519V16.5926ZM22.8193 11.553C23.2279 11.9595 23.4322 12.4472 23.4322 13.0297H23.4256V13.0433C23.4256 13.6258 23.2279 14.1203 22.8324 14.5403C22.437 14.9602 21.9559 15.1702 21.3825 15.1702C20.8025 15.1702 20.3214 14.9602 19.9392 14.5335C19.5569 14.1067 19.3658 13.5987 19.3658 13.0094C19.3658 12.4607 19.5701 11.9798 19.9655 11.5666C20.3676 11.1534 20.8289 10.9434 21.3627 10.9434C21.9295 10.9434 22.4106 11.1466 22.8193 11.553Z" fill="black"/>
<path fill-rule="evenodd" clip-rule="evenodd" d="M28.2372 14.811C27.8977 14.568 27.6647 14.2372 27.5383 13.8186V13.8051H32.9436C32.9436 13.7781 32.9436 13.7579 32.9503 13.7308C32.957 13.7038 32.9636 13.6768 32.9703 13.6431C32.9902 13.5418 33.0036 13.4405 33.0169 13.3325C33.0302 13.2245 33.0368 13.1165 33.0368 13.0085C33.0368 12.0228 32.6907 11.1586 31.9984 10.416C31.306 9.67338 30.4606 9.30206 29.4621 9.30206C28.4236 9.30206 27.5449 9.68013 26.8326 10.4295C26.1203 11.1789 25.7609 12.0768 25.7609 13.1232C25.7609 14.1494 26.1203 15.0203 26.8393 15.7427C27.5516 16.4651 28.417 16.8229 29.4355 16.8229C30.1744 16.8229 30.8667 16.6069 31.5058 16.168C32.1515 15.7292 32.5709 15.1959 32.7839 14.5545L30.9333 14.568C30.7735 14.757 30.5538 14.9056 30.2742 15.0136C29.9946 15.1283 29.6951 15.1824 29.3756 15.1824C28.9562 15.1824 28.5767 15.0608 28.2372 14.811ZM30.6203 11.3276C30.9731 11.5707 31.2194 11.8948 31.3525 12.3135H27.5048C27.6247 11.9218 27.8577 11.6112 28.2105 11.3681C28.5633 11.125 28.9361 10.9967 29.3421 10.9697H29.3954H29.4487C29.8747 10.9697 30.2675 11.0912 30.6203 11.3276Z" fill="black"/>
<path fill-rule="evenodd" clip-rule="evenodd" d="M36.7142 7.32294H34.0201V16.625H35.743V13.0627H35.7696L38.1843 16.625H40.3129L37.7984 13.2025C38.1177 13.1359 38.4104 13.0294 38.6898 12.8895C38.9625 12.7497 39.2153 12.5499 39.4415 12.3102C39.5878 12.1438 39.7209 11.9374 39.8406 11.7043C39.9603 11.4646 40.0534 11.2249 40.12 10.9719C40.1299 10.9119 40.1399 10.8537 40.1499 10.7954C40.1599 10.7371 40.1699 10.6789 40.1798 10.619C40.1998 10.4991 40.2064 10.3859 40.2064 10.2794C40.2064 9.83989 40.1133 9.4204 39.9204 9.01422C39.7275 8.60805 39.4614 8.26846 39.1288 7.9888C38.7763 7.69582 38.3971 7.51604 37.9913 7.44945C37.5856 7.38286 37.1599 7.34291 36.7142 7.32294ZM36.9203 11.7572C36.8338 11.7638 36.754 11.7572 36.6808 11.7505H35.7296V9.00717H36.6874C36.9269 9.00717 37.1531 9.02049 37.3593 9.04712C37.5655 9.08041 37.7717 9.16698 37.9713 9.32012C38.1442 9.43998 38.264 9.59313 38.3504 9.77957C38.4369 9.96601 38.4768 10.1658 38.4768 10.3655C38.4768 10.5586 38.4436 10.7384 38.3704 10.9115C38.3039 11.0847 38.1908 11.2378 38.0511 11.371C37.9447 11.4842 37.8116 11.5641 37.6586 11.6173C37.5056 11.6706 37.346 11.7106 37.1863 11.7372C37.0932 11.7439 37.0067 11.7505 36.9203 11.7572Z" fill="black"/>
<path fill-rule="evenodd" clip-rule="evenodd" d="M42.9859 14.811C42.6464 14.568 42.4134 14.2372 42.2869 13.8186V13.8051H47.6923C47.6923 13.7781 47.6923 13.7579 47.699 13.7308C47.7056 13.7038 47.7123 13.6768 47.7189 13.6431C47.7389 13.5418 47.7522 13.4405 47.7655 13.3325C47.7788 13.2245 47.7855 13.1165 47.7855 13.0085C47.7855 12.0228 47.4393 11.1586 46.747 10.416C46.0547 9.67338 45.2093 9.30206 44.2107 9.30206C43.1723 9.30206 42.2936 9.68013 41.5813 10.4295C40.869 11.1789 40.5095 12.0768 40.5095 13.1232C40.5095 14.1494 40.869 15.0203 41.5879 15.7427C42.3002 16.4651 43.1723 16.8229 44.1841 16.8229C44.923 16.8229 45.6154 16.6069 46.2544 16.168C46.9001 15.7292 47.3262 15.1959 47.5325 14.5545L45.6819 14.568C45.5222 14.757 45.3025 14.9056 45.0229 15.0136C44.7433 15.1283 44.4437 15.1824 44.1242 15.1824C43.7048 15.1824 43.3254 15.0608 42.9859 14.811ZM45.369 11.3276C45.7218 11.5707 45.9681 11.8948 46.1012 12.3135H42.2536C42.3734 11.9218 42.6064 11.6112 42.9592 11.3681C43.312 11.125 43.6914 10.9967 44.0909 10.9697H44.1441H44.1974C44.6301 10.9697 45.0162 11.0912 45.369 11.3276Z" fill="black"/>
<path d="M47.9822 9.69794H49.8281L51.4367 14.8391L53.0189 9.69794H54.8649L52.0762 18.2732L50.9818 19L50.7774 18.2732L47.9822 9.69794Z" fill="black"/>
<path d="M26.3508 5.17831C27.6117 4.49811 28.9727 3.87853 30.4071 3.31282L30.7006 3.46098L31.0809 3.32629L30.814 3.16466C32.2484 2.62588 33.7495 2.14773 35.3239 1.75712C35.5041 1.70997 35.6842 1.66957 35.8643 1.62916L36.0244 1.90528L36.4314 1.82446L36.318 1.5214C38.0059 1.13753 39.6737 0.874878 41.2949 0.713247L41.2415 1.08365L41.6618 1.04324L41.7419 0.672839C43.5832 0.517942 45.3645 0.497738 47.039 0.618962L46.6587 1.00957L47.1324 1.03651L47.5127 0.652635C49.3874 0.814266 51.1286 1.151 52.6831 1.63589L51.749 2.01303L52.2494 2.16119L53.2168 1.81773C53.9373 2.06691 54.6044 2.3565 55.2315 2.67976L39.6871 5.27933C43.5231 5.2726 44.7841 6.28953 45.2244 7.12462L55.5051 2.82119C56.1656 3.17813 56.766 3.57547 57.2997 4.01322C57.3397 4.04689 56.726 4.28261 56.2256 4.47791C56.3123 4.56546 56.4057 4.65301 56.4925 4.7473C57.3864 5.71708 58.0936 6.93605 58.2137 8.50523L59.7615 8.26278C59.8015 8.35706 59.8549 8.7342 59.8415 8.92277L58.2337 9.09114C58.2003 11.2934 57.0462 14.1219 53.8172 17.8125C53.8172 17.8125 58.6006 14.6607 59.9149 13.7919C61.2359 12.9232 61.3026 11.1923 61.3426 10.2899C61.9497 -2.32408 38.4929 -2.48571 26.3508 5.17831Z" fill="#82BC00"/>
</svg>
