<svg width="28" height="28" viewBox="0 0 28 28" fill="none" xmlns="http://www.w3.org/2000/svg">
<path fill-rule="evenodd" clip-rule="evenodd" d="M14 28C6.28075 28 0 21.7192 0 14C0 6.28075 6.28075 0 14 0C21.7192 0 28 6.28075 28 14C28 21.7192 21.7192 28 14 28Z" fill="#EEC200"/>
<path fill-rule="evenodd" clip-rule="evenodd" d="M14 16C15.106 16 16 15.1805 16 14.1667V6.83333C16 5.8195 15.106 5 14 5C12.894 5 12 5.8195 12 6.83333V14.1667C12 15.1805 12.894 16 14 16Z" fill="white"/>
<path fill-rule="evenodd" clip-rule="evenodd" d="M14 19C12.8964 19 12 19.895 12 21.0009C12 22.105 12.8964 23 14 23C15.1036 23 16 22.105 16 21.0009C16 19.895 15.1036 19 14 19Z" fill="white"/>
</svg>
