<svg width="22" height="23" viewBox="0 0 22 23" fill="none" xmlns="http://www.w3.org/2000/svg">
<path fill-rule="evenodd" clip-rule="evenodd" d="M3.43089 22.2371C3.97589 22.2371 4.48989 22.0261 4.87689 21.6441C4.87989 21.6411 13.1069 12.9181 13.1069 12.9181C13.6549 13.6421 14.1489 14.4111 14.5779 15.2111C14.6119 15.2751 14.6559 15.3351 14.7079 15.3871C15.0969 15.7761 15.6139 15.9911 16.1639 15.9911C16.7139 15.9911 17.2309 15.7771 17.6199 15.3891L21.1299 11.8791C21.5189 11.4901 21.7329 10.9741 21.7339 10.4241C21.7339 9.87708 21.5219 9.36208 21.1379 8.97408C21.0909 8.92308 21.0299 8.87608 20.9639 8.83908C17.9699 7.17808 15.5099 4.71808 13.8489 1.72408C13.8149 1.66308 13.7729 1.60708 13.7239 1.55808C13.3359 1.16908 12.8189 0.955078 12.2679 0.955078C11.7189 0.955078 11.2029 1.16808 10.8149 1.55508L7.30189 5.06808C6.91389 5.45508 6.69889 5.97108 6.69789 6.52108C6.69789 7.07108 6.91089 7.58808 7.29789 7.97608C7.31189 7.99008 7.32489 8.00208 7.33889 8.01408C7.36589 8.03708 7.41489 8.07708 7.47789 8.11008C8.27589 8.53808 9.04389 9.03108 9.76689 9.57808L1.06489 17.7801C0.662886 18.1811 0.445887 18.7011 0.445887 19.2511C0.445887 19.7981 0.656885 20.3121 1.04089 20.7001L1.97489 21.6341C2.36289 22.0231 2.87989 22.2371 3.43089 22.2371ZM3.81889 20.5811C3.71989 20.6801 3.57989 20.7371 3.43189 20.7371C3.28289 20.7371 3.14189 20.6781 3.03689 20.5731L2.11089 19.6471C2.00489 19.5411 1.94689 19.4001 1.94689 19.2511C1.94689 19.1021 2.00489 18.9621 2.11089 18.8561L10.9299 10.5431C11.3529 10.9261 11.7589 11.3321 12.1419 11.7541L3.81889 20.5811ZM20.2339 10.4211C20.2339 10.2981 20.1959 10.1841 20.1239 10.0881C16.9739 8.31408 14.3739 5.71408 12.5999 2.56308C12.5049 2.49208 12.3889 2.45408 12.2679 2.45408C12.1199 2.45408 11.9809 2.51108 11.8729 2.61808L8.36189 6.12908C8.25589 6.23408 8.19789 6.37308 8.19789 6.52208C8.19689 6.64208 8.23389 6.75908 8.29989 6.84908C11.4919 8.58808 14.0959 11.1911 15.8359 14.3821C15.9309 14.4521 16.0439 14.4891 16.1649 14.4891C16.3139 14.4891 16.4549 14.4311 16.5609 14.3251L20.0699 10.8161C20.1759 10.7111 20.2339 10.5701 20.2339 10.4211Z" fill="#00838F"/>
<path d="M4.87689 21.6441L5.05367 21.8209L5.05251 21.822L4.87689 21.6441ZM13.1069 12.9181L12.925 12.7465L13.1278 12.5315L13.3062 12.7672L13.1069 12.9181ZM14.5779 15.2111L14.7982 15.0929L14.7987 15.0938L14.5779 15.2111ZM17.6199 15.3891L17.7967 15.5659L17.7964 15.5661L17.6199 15.3891ZM21.1299 11.8791L20.9531 11.7023L21.1299 11.8791ZM21.7339 10.4241H21.9839L21.9839 10.4245L21.7339 10.4241ZM21.1379 8.97408L20.9601 9.15005L20.954 9.1435L21.1379 8.97408ZM20.9639 8.83908L21.0852 8.62046L21.0861 8.62101L20.9639 8.83908ZM13.8489 1.72408L14.0673 1.60236L14.0675 1.6028L13.8489 1.72408ZM13.7239 1.55808L13.5471 1.73485L13.5469 1.73463L13.7239 1.55808ZM10.8149 1.55508L10.6381 1.3783L10.6383 1.37807L10.8149 1.55508ZM7.30189 5.06808L7.47866 5.24485L7.47844 5.24508L7.30189 5.06808ZM6.69789 6.52108H6.44789V6.52062L6.69789 6.52108ZM7.29789 7.97608L7.12111 8.15285L7.12088 8.15263L7.29789 7.97608ZM7.33889 8.01408L7.17677 8.20439L7.17619 8.20389L7.33889 8.01408ZM7.47789 8.11008L7.59389 7.88861L7.59605 7.88977L7.47789 8.11008ZM9.76689 9.57808L9.91772 9.37871L10.1536 9.55715L9.93836 9.76L9.76689 9.57808ZM1.06489 17.7801L0.88826 17.603L0.893414 17.5982L1.06489 17.7801ZM1.04089 20.7001L0.864107 20.8769L0.863195 20.8759L1.04089 20.7001ZM1.97489 21.6341L2.15166 21.4573L2.15189 21.4575L1.97489 21.6341ZM3.81889 20.5811L4.00086 20.7527L3.99566 20.7579L3.81889 20.5811ZM3.03689 20.5731L3.21367 20.3963L3.03689 20.5731ZM2.11089 19.6471L1.93411 19.8239L1.93411 19.8239L2.11089 19.6471ZM2.11089 18.8561L1.93403 18.6792L1.93941 18.6742L2.11089 18.8561ZM10.9299 10.5431L10.7584 10.3612L10.9265 10.2027L11.0977 10.3578L10.9299 10.5431ZM12.1419 11.7541L12.327 11.5861L12.4824 11.7573L12.3238 11.9256L12.1419 11.7541ZM20.1239 10.0881L20.2466 9.87025L20.2924 9.89604L20.3239 9.93808L20.1239 10.0881ZM12.5999 2.56308L12.7495 2.36283L12.7918 2.39443L12.8177 2.44043L12.5999 2.56308ZM11.8729 2.61808L11.6961 2.4413L11.6969 2.44048L11.8729 2.61808ZM8.36189 6.12908L8.53867 6.30586L8.53782 6.30669L8.36189 6.12908ZM8.19789 6.52208H8.4479L8.44788 6.52416L8.19789 6.52208ZM8.29989 6.84908L8.18028 7.06861L8.13128 7.04192L8.09829 6.99692L8.29989 6.84908ZM15.8359 14.3821L15.6876 14.5833L15.6429 14.5504L15.6164 14.5018L15.8359 14.3821ZM16.5609 14.3251L16.3841 14.1483L16.5609 14.3251ZM20.0699 10.8161L19.8931 10.6393L19.894 10.6385L20.0699 10.8161ZM5.05251 21.822C4.61868 22.2502 4.04156 22.4871 3.43089 22.4871V21.9871C3.91021 21.9871 4.3611 21.8019 4.70126 21.4662L5.05251 21.822ZM13.1069 12.9181C13.2888 13.0896 13.2887 13.0896 13.2887 13.0897C13.2886 13.0898 13.2885 13.0899 13.2884 13.09C13.2881 13.0903 13.2878 13.0907 13.2873 13.0912C13.2863 13.0923 13.2848 13.0938 13.2828 13.0959C13.2788 13.1001 13.2729 13.1064 13.2652 13.1146C13.2496 13.1311 13.2265 13.1556 13.1964 13.1876C13.1361 13.2515 13.0477 13.3452 12.9352 13.4644C12.7103 13.703 12.3889 14.0437 12.0032 14.4526C11.2319 15.2705 10.2034 16.3609 9.17488 17.4515C7.1211 19.6291 5.05861 21.8159 5.05366 21.8209L4.70011 21.4673C4.69816 21.4692 6.75068 19.2931 8.81114 17.1084C9.8397 16.0179 10.8682 14.9274 11.6395 14.1096C12.0252 13.7006 12.3465 13.3599 12.5715 13.1214C12.684 13.0021 12.7724 12.9084 12.8326 12.8445C12.8628 12.8126 12.8858 12.7881 12.9014 12.7716C12.9092 12.7633 12.9151 12.7571 12.9191 12.7529C12.921 12.7508 12.9225 12.7492 12.9235 12.7481C12.924 12.7476 12.9244 12.7472 12.9246 12.7469C12.9248 12.7468 12.9249 12.7467 12.9249 12.7466C12.925 12.7466 12.925 12.7465 13.1069 12.9181ZM14.3576 15.3292C13.9348 14.5408 13.4478 13.7827 12.9075 13.069L13.3062 12.7672C13.862 13.5014 14.363 14.2814 14.7982 15.0929L14.3576 15.3292ZM14.5311 15.5639C14.4612 15.4939 14.4025 15.4138 14.3571 15.3284L14.7987 15.0938C14.8213 15.1364 14.8506 15.1762 14.8847 15.2103L14.5311 15.5639ZM16.1639 16.2411C15.5473 16.2411 14.9668 15.9995 14.5311 15.5639L14.8847 15.2103C15.227 15.5526 15.6805 15.7411 16.1639 15.7411V16.2411ZM17.7964 15.5661C17.3606 16.0008 16.7801 16.2411 16.1639 16.2411V15.7411C16.6477 15.7411 17.1012 15.5534 17.4433 15.2121L17.7964 15.5661ZM21.3067 12.0559L17.7967 15.5659L17.4431 15.2123L20.9531 11.7023L21.3067 12.0559ZM21.9839 10.4245C21.9828 11.0406 21.7425 11.62 21.3067 12.0559L20.9531 11.7023C21.2953 11.3601 21.483 10.9076 21.4839 10.4236L21.9839 10.4245ZM21.3156 8.79822C21.7459 9.23302 21.9839 9.81122 21.9839 10.4241H21.4839C21.4839 9.94294 21.2979 9.49113 20.9602 9.14994L21.3156 8.79822ZM21.0861 8.62101C21.1722 8.66925 21.2548 8.73199 21.3217 8.80466L20.954 9.1435C20.927 9.11417 20.8876 9.08291 20.8416 9.05715L21.0861 8.62101ZM14.0675 1.6028C15.7058 4.55589 18.1321 6.98216 21.0852 8.62047L20.8426 9.05769C17.8077 7.37399 15.314 4.88027 13.6303 1.84536L14.0675 1.6028ZM13.9007 1.3813C13.9665 1.44712 14.0223 1.52177 14.0673 1.60236L13.6305 1.84579C13.6074 1.80439 13.5793 1.76704 13.5471 1.73485L13.9007 1.3813ZM12.2679 0.705078C12.885 0.705078 13.4658 0.945315 13.9009 1.38153L13.5469 1.73463C13.206 1.39284 12.7527 1.20508 12.2679 1.20508V0.705078ZM10.6383 1.37807C11.0733 0.944207 11.6529 0.705078 12.2679 0.705078V1.20508C11.7849 1.20508 11.3324 1.39195 10.9914 1.73208L10.6383 1.37807ZM7.12511 4.8913L10.6381 1.3783L10.9917 1.73185L7.47866 5.24485L7.12511 4.8913ZM6.44789 6.52062C6.44901 5.90439 6.69041 5.32488 7.12534 4.89107L7.47844 5.24508C7.13737 5.58527 6.94877 6.03776 6.94789 6.52153L6.44789 6.52062ZM7.12088 8.15263C6.68688 7.7175 6.44789 7.1369 6.44789 6.52108H6.94789C6.94789 7.00525 7.13489 7.45865 7.47489 7.79953L7.12088 8.15263ZM7.17619 8.20389C7.15734 8.18774 7.13965 8.17139 7.12111 8.15285L7.47466 7.7993C7.48413 7.80877 7.49243 7.81642 7.50159 7.82427L7.17619 8.20389ZM7.36189 8.33154C7.27421 8.28561 7.20853 8.23144 7.17677 8.20439L7.501 7.82377C7.52325 7.84272 7.55557 7.86855 7.59389 7.88862L7.36189 8.33154ZM9.61605 9.77745C8.90328 9.23819 8.1462 8.75221 7.35972 8.33039L7.59605 7.88977C8.40558 8.32395 9.18449 8.82397 9.91772 9.37871L9.61605 9.77745ZM0.893414 17.5982L9.59541 9.39615L9.93836 9.76L1.23636 17.962L0.893414 17.5982ZM0.195887 19.2511C0.195887 18.6332 0.440392 18.0499 0.88833 17.6031L1.24144 17.9571C0.88538 18.3123 0.695887 18.769 0.695887 19.2511H0.195887ZM0.863195 20.8759C0.432743 20.441 0.195887 19.8638 0.195887 19.2511H0.695887C0.695887 19.7324 0.881027 20.1832 1.21858 20.5242L0.863195 20.8759ZM1.79811 21.8109L0.864109 20.8769L1.21766 20.5233L2.15166 21.4573L1.79811 21.8109ZM3.43089 22.4871C2.81374 22.4871 2.23298 22.2468 1.79788 21.8106L2.15189 21.4575C2.4928 21.7993 2.94603 21.9871 3.43089 21.9871V22.4871ZM3.43189 20.4871C3.51672 20.4871 3.59216 20.4542 3.64211 20.4043L3.99566 20.7579C3.84761 20.9059 3.64306 20.9871 3.43189 20.9871V20.4871ZM3.21367 20.3963C3.27218 20.4548 3.34976 20.4871 3.43189 20.4871V20.9871C3.21602 20.9871 3.01159 20.9013 2.86011 20.7499L3.21367 20.3963ZM2.28766 19.4703L3.21367 20.3963L2.86011 20.7499L1.93411 19.8239L2.28766 19.4703ZM2.19689 19.2511C2.19689 19.334 2.22872 19.4114 2.28766 19.4703L1.93411 19.8239C1.78105 19.6708 1.69689 19.4661 1.69689 19.2511H2.19689ZM2.28766 19.0329C2.22839 19.0921 2.19689 19.1686 2.19689 19.2511H1.69689C1.69689 19.0356 1.78139 18.832 1.93411 18.6793L2.28766 19.0329ZM11.1014 10.725L2.28237 19.038L1.93941 18.6742L10.7584 10.3612L11.1014 10.725ZM11.9568 11.9221C11.5792 11.5061 11.179 11.1059 10.7621 10.7284L11.0977 10.3578C11.5268 10.7463 11.9386 11.1581 12.327 11.5861L11.9568 11.9221ZM3.63699 20.4096L11.96 11.5826L12.3238 11.9256L4.00078 20.7526L3.63699 20.4096ZM20.3239 9.93808C20.4288 10.0779 20.4839 10.2447 20.4839 10.4211H19.9839C19.9839 10.3515 19.963 10.2902 19.9239 10.2381L20.3239 9.93808ZM12.8177 2.44043C14.5693 5.55159 17.1364 8.11867 20.2466 9.87025L20.0012 10.3059C16.8114 8.50948 14.1785 5.87656 12.382 2.68573L12.8177 2.44043ZM12.2679 2.20408C12.4415 2.20408 12.6103 2.25872 12.7495 2.36283L12.4502 2.76333C12.3995 2.72543 12.3363 2.70408 12.2679 2.70408V2.20408ZM11.6969 2.44048C11.8512 2.28761 12.0533 2.20408 12.2679 2.20408V2.70408C12.1865 2.70408 12.1105 2.73454 12.0488 2.79567L11.6969 2.44048ZM8.18511 5.9523L11.6961 2.4413L12.0497 2.79485L8.53866 6.30585L8.18511 5.9523ZM7.94789 6.52208C7.94789 6.30627 8.03262 6.10335 8.18595 5.95147L8.53782 6.30669C8.47916 6.36481 8.44789 6.43989 8.44789 6.52208H7.94789ZM8.09829 6.99692C7.99861 6.861 7.94647 6.69074 7.9479 6.51999L8.44788 6.52416C8.4473 6.59341 8.46916 6.65715 8.50149 6.70124L8.09829 6.99692ZM15.6164 14.5018C13.8994 11.353 11.3301 8.78462 8.18028 7.06861L8.41949 6.62954C11.6537 8.39153 14.2924 11.0292 16.0554 14.2624L15.6164 14.5018ZM16.1649 14.7391C15.9914 14.7391 15.8263 14.6855 15.6876 14.5833L15.9842 14.1808C16.0355 14.2186 16.0963 14.2391 16.1649 14.2391V14.7391ZM16.7377 14.5019C16.5846 14.6549 16.3799 14.7391 16.1649 14.7391V14.2391C16.2478 14.2391 16.3252 14.2072 16.3841 14.1483L16.7377 14.5019ZM20.2467 10.9929L16.7377 14.5019L16.3841 14.1483L19.8931 10.6393L20.2467 10.9929ZM20.4839 10.4211C20.4839 10.6359 20.3998 10.8411 20.2458 10.9937L19.894 10.6385C19.9519 10.581 19.9839 10.5042 19.9839 10.4211H20.4839Z" fill="#00838F"/>
</svg>
