<svg width="16" height="17" viewBox="0 0 16 17" fill="none" xmlns="http://www.w3.org/2000/svg">
<rect x="0.75" y="0.75" width="14.3991" height="14.5133" rx="3.25" fill="#0075BE" stroke="#0075BE" stroke-width="1.5"/>
<path d="M7.22236 11.3546C7.18045 11.3546 7.13854 11.3546 7.09663 11.3546C6.64715 11.3531 6.21691 11.1686 5.90164 10.8421L4.20261 9.11056C3.89072 8.76944 3.89992 8.23787 4.22343 7.90818C4.54694 7.57848 5.06854 7.5691 5.40326 7.88696L6.87576 9.3876C6.93511 9.44869 7.01835 9.47923 7.10229 9.47071C7.18418 9.46452 7.2594 9.4224 7.30844 9.35528L10.395 5.15003C10.5771 4.90258 10.8749 4.77294 11.1762 4.80994C11.4776 4.84694 11.7366 5.04495 11.8559 5.32939C11.9751 5.61383 11.9363 5.94149 11.7542 6.18893L8.46945 10.6608C8.17363 11.067 7.71765 11.3203 7.22236 11.3534V11.3546Z" fill="white"/>
</svg>
