<svg width="50" height="45" viewBox="0 0 50 45" fill="none" xmlns="http://www.w3.org/2000/svg">
<path d="M10.3428 33.6758C10.3005 34.151 10.167 34.571 9.94238 34.9355C9.72103 35.3001 9.40853 35.585 9.00488 35.79C8.60124 35.9951 8.11621 36.0977 7.5498 36.0977C6.96712 36.0977 6.45931 35.9609 6.02637 35.6875C5.59342 35.4108 5.25977 35.0186 5.02539 34.5107C4.79102 34.0029 4.67383 33.4089 4.67383 32.7285V32.167C4.67383 31.4867 4.79264 30.8926 5.03027 30.3848C5.27116 29.877 5.61133 29.4847 6.05078 29.208C6.49349 28.9313 7.00944 28.793 7.59863 28.793C8.15527 28.793 8.63053 28.8971 9.02441 29.1055C9.41829 29.3105 9.72428 29.5986 9.94238 29.9697C10.1637 30.3376 10.2988 30.764 10.3477 31.249H9.08789C9.03255 30.7738 8.89095 30.4173 8.66309 30.1797C8.43848 29.9388 8.08366 29.8184 7.59863 29.8184C7.05501 29.8184 6.64323 30.0202 6.36328 30.4238C6.08659 30.8242 5.94824 31.402 5.94824 32.1572V32.7285C5.94824 33.4707 6.07682 34.0469 6.33398 34.457C6.5944 34.8672 6.99967 35.0723 7.5498 35.0723C7.88835 35.0723 8.16341 35.0202 8.375 34.916C8.58984 34.8086 8.75098 34.654 8.8584 34.4521C8.96908 34.2471 9.04395 33.9883 9.08301 33.6758H10.3428ZM11.6475 36V28.5H12.8633V36H11.6475ZM14.168 33.3096C14.168 32.7952 14.2656 32.3346 14.4609 31.9277C14.6595 31.5208 14.9443 31.2018 15.3154 30.9707C15.6865 30.7363 16.1227 30.6191 16.624 30.6191C17.1318 30.6191 17.5713 30.7363 17.9424 30.9707C18.3167 31.2018 18.6016 31.5208 18.7969 31.9277C18.9954 32.3346 19.0947 32.7952 19.0947 33.3096V33.4121C19.0947 33.9264 18.9954 34.387 18.7969 34.7939C18.6016 35.2008 18.3184 35.5199 17.9473 35.751C17.5762 35.9821 17.1383 36.0977 16.6338 36.0977C16.1292 36.0977 15.6898 35.9821 15.3154 35.751C14.9443 35.5199 14.6595 35.2008 14.4609 34.7939C14.2656 34.387 14.168 33.9264 14.168 33.4121V33.3096ZM15.3838 33.4121C15.3838 33.9134 15.488 34.3236 15.6963 34.6426C15.9046 34.9616 16.2171 35.1211 16.6338 35.1211C16.9105 35.1211 17.1416 35.0462 17.3271 34.8965C17.516 34.7435 17.6543 34.5384 17.7422 34.2812C17.8333 34.0241 17.8789 33.7344 17.8789 33.4121V33.3096C17.8789 32.9906 17.8333 32.7025 17.7422 32.4453C17.6543 32.1849 17.516 31.9782 17.3271 31.8252C17.1383 31.6722 16.904 31.5957 16.624 31.5957C16.3473 31.5957 16.1162 31.6722 15.9307 31.8252C15.7451 31.9782 15.6068 32.1849 15.5156 32.4453C15.4277 32.7025 15.3838 32.9906 15.3838 33.3096V33.4121ZM22.1572 33.793C21.5518 33.666 21.0846 33.4788 20.7559 33.2314C20.4271 32.984 20.2627 32.6488 20.2627 32.2256C20.2627 31.9359 20.3457 31.6689 20.5117 31.4248C20.681 31.1774 20.9202 30.9821 21.2295 30.8389C21.542 30.6924 21.9017 30.6191 22.3086 30.6191C22.7415 30.6191 23.1175 30.6924 23.4365 30.8389C23.7588 30.9854 24.0062 31.1872 24.1787 31.4443C24.3512 31.6982 24.4375 31.9847 24.4375 32.3037H23.2217C23.2217 32.1637 23.1859 32.0352 23.1143 31.918C23.0459 31.7975 22.9434 31.7015 22.8066 31.6299C22.6699 31.5583 22.5039 31.5225 22.3086 31.5225C22.0319 31.5225 21.8187 31.5843 21.6689 31.708C21.5192 31.8317 21.4443 31.9863 21.4443 32.1719C21.4443 32.2891 21.4753 32.3883 21.5371 32.4697C21.6022 32.5511 21.7129 32.6243 21.8691 32.6895C22.0254 32.7546 22.2419 32.8164 22.5186 32.875C22.9482 32.9661 23.3047 33.0768 23.5879 33.207C23.8711 33.3372 24.0892 33.5065 24.2422 33.7148C24.3952 33.9232 24.4717 34.1836 24.4717 34.4961C24.4717 34.8053 24.3822 35.082 24.2031 35.3262C24.0273 35.5703 23.7767 35.7607 23.4512 35.8975C23.1257 36.0309 22.7497 36.0977 22.3232 36.0977C21.861 36.0977 21.4606 36.013 21.1221 35.8438C20.7835 35.6745 20.5264 35.4548 20.3506 35.1846C20.1748 34.9144 20.0869 34.6296 20.0869 34.3301H21.2637C21.2767 34.6263 21.3857 34.8444 21.5908 34.9844C21.7992 35.1243 22.0498 35.1943 22.3428 35.1943C22.639 35.1943 22.8685 35.1374 23.0312 35.0234C23.1973 34.9062 23.2803 34.7516 23.2803 34.5596C23.2803 34.4359 23.251 34.3301 23.1924 34.2422C23.1338 34.1543 23.0215 34.0729 22.8555 33.998C22.6927 33.9232 22.46 33.8548 22.1572 33.793ZM30.2148 33.7393H26.7725C26.7952 34.0094 26.8652 34.2487 26.9824 34.457C27.0996 34.6654 27.2575 34.8281 27.4561 34.9453C27.6579 35.0625 27.8923 35.1211 28.1592 35.1211C28.7061 35.1211 29.1455 34.9062 29.4775 34.4766L30.127 35.1064C29.9349 35.3896 29.668 35.6257 29.3262 35.8145C28.9844 36.0033 28.571 36.0977 28.0859 36.0977C27.5716 36.0977 27.1224 35.987 26.7383 35.7656C26.3542 35.541 26.0596 35.235 25.8545 34.8477C25.6494 34.4603 25.5469 34.0257 25.5469 33.5439V33.3438C25.5469 32.8001 25.651 32.3232 25.8594 31.9131C26.0677 31.4997 26.3542 31.1807 26.7188 30.9561C27.0833 30.7314 27.4935 30.6191 27.9492 30.6191C28.4473 30.6191 28.8656 30.7282 29.2041 30.9463C29.5426 31.1644 29.7949 31.4704 29.9609 31.8643C30.1302 32.2549 30.2148 32.709 30.2148 33.2266V33.7393ZM29.0137 32.7676C28.9974 32.4258 28.9046 32.1458 28.7354 31.9277C28.5661 31.7064 28.3024 31.5957 27.9443 31.5957C27.6253 31.5957 27.3682 31.7064 27.1729 31.9277C26.9775 32.1491 26.8522 32.46 26.7969 32.8604H29.0137V32.7676ZM38.21 34.3691H35.4805L34.9141 36H33.5908L36.2715 28.8906H37.1113H37.4092L40.0996 36H38.7764L38.21 34.3691ZM37.8535 33.3486L36.8428 30.4336L35.832 33.3486H37.8535ZM41.1064 36V28.5H42.3223V36H41.1064ZM43.9248 36V28.5H45.1406V36H43.9248Z" fill="#027ABB"/>
<path d="M32.5 1.49902L26.5 7.49902" stroke="#027ABB" stroke-width="3" stroke-linecap="round" stroke-linejoin="round"/>
<path d="M23.5 14.999V10.499H19" stroke="#027ABB" stroke-width="3" stroke-linecap="round" stroke-linejoin="round"/>
<path d="M26.5 2.99902V7.49902H31" stroke="#027ABB" stroke-width="3" stroke-linecap="round" stroke-linejoin="round"/>
<path d="M23.5 10.499L17.5 16.499" stroke="#027ABB" stroke-width="3" stroke-linecap="round" stroke-linejoin="round"/>
</svg>
