<svg width="24" height="24" viewBox="0 0 24 24" fill="none" xmlns="http://www.w3.org/2000/svg">
<path fill-rule="evenodd" clip-rule="evenodd" d="M22.5688 5.70409C22.844 5.97888 22.9987 6.35168 22.999 6.74053V20.802C22.998 22.0158 22.0139 22.9995 20.8001 23H3.20088C1.98629 23.0005 1.00108 22.0166 1 20.802V3.20196C0.999482 2.61797 1.23116 2.05774 1.64399 1.64471C2.05682 1.23168 2.61692 0.99974 3.20088 1H17.2578C17.6468 0.999824 18.02 1.15423 18.2952 1.42924L22.5688 5.70409Z" stroke="#027ABB" stroke-width="2" stroke-linecap="round" stroke-linejoin="round"/>
<path d="M17.0674 1.24927V5.69871C17.0674 6.51782 17.7314 7.18185 18.5505 7.18185H22.9997" stroke="#027ABB" stroke-width="2" stroke-linecap="round" stroke-linejoin="round"/>
<path d="M14 19H11.8571L9.5 14.82L7.14286 19H5L8.42857 13.5L5 8H7.14286L9.5 12.18L11.8571 8H14L10.5714 13.5L14 19Z" fill="#027ABB"/>
</svg>
