<svg width="50" height="44" viewBox="0 0 50 44" fill="none" xmlns="http://www.w3.org/2000/svg">
<g clip-path="url(#clip0)">
<path d="M23.5 9.49866L17.5 15.4987" stroke="#027ABB" stroke-width="3" stroke-linecap="round" stroke-linejoin="round"/>
<path d="M32.5 4.99866V0.498657H28" stroke="#027ABB" stroke-width="3" stroke-linecap="round" stroke-linejoin="round"/>
<path d="M17.5 10.9987V15.4987H22" stroke="#027ABB" stroke-width="3" stroke-linecap="round" stroke-linejoin="round"/>
<path d="M32.5 0.498657L26.5 6.49866" stroke="#027ABB" stroke-width="3" stroke-linecap="round" stroke-linejoin="round"/>
</g>
<path d="M5.62305 33.9844V35H1.8877H0.959961V27.8906H2.22461H5.59375V28.9111H2.22461V30.8398H5.12988V31.8359H2.22461V33.9844H5.62305ZM9.65723 29.7168H10.9951L9.39844 32.3145L11.0537 35H9.71582L8.67578 33.2129L7.64062 35H6.29785L7.95312 32.3145L6.35645 29.7168H7.69434L8.66602 31.4307L9.65723 29.7168ZM14.6191 29.6191C15.0586 29.6191 15.4329 29.7298 15.7422 29.9512C16.0547 30.1725 16.2907 30.485 16.4502 30.8887C16.6097 31.2923 16.6895 31.7643 16.6895 32.3047V32.4072C16.6895 32.9248 16.6081 33.387 16.4453 33.7939C16.2858 34.2008 16.0514 34.5199 15.7422 34.751C15.4329 34.9821 15.0635 35.0977 14.6338 35.0977C14.0674 35.0977 13.6084 34.9072 13.2568 34.5264V37.0312H12.041V29.7168H13.1592L13.208 30.249C13.5628 29.8291 14.0332 29.6191 14.6191 29.6191ZM15.4736 32.3047C15.4736 31.8034 15.3743 31.3965 15.1758 31.084C14.9805 30.7682 14.6826 30.6104 14.2822 30.6104C13.807 30.6104 13.4652 30.8073 13.2568 31.2012V33.5205C13.4684 33.9209 13.8135 34.1211 14.292 34.1211C14.6891 34.1211 14.9854 33.9616 15.1807 33.6426C15.376 33.3236 15.4736 32.9118 15.4736 32.4072V32.3047ZM22.1104 33.7695C22.1104 34.2513 22.1771 34.6338 22.3105 34.917V35H21.0703C21.0182 34.8861 20.9727 34.7217 20.9336 34.5068C20.7676 34.6859 20.569 34.8291 20.3379 34.9365C20.1068 35.0439 19.8447 35.0977 19.5518 35.0977C19.2067 35.0977 18.8975 35.0293 18.624 34.8926C18.3506 34.7559 18.1374 34.5671 17.9844 34.3262C17.8314 34.0853 17.7549 33.8151 17.7549 33.5156C17.7549 32.9525 17.9632 32.5212 18.3799 32.2217C18.7998 31.9222 19.3939 31.7725 20.1621 31.7725H20.8945V31.4307C20.8945 31.1507 20.818 30.9326 20.665 30.7764C20.512 30.6169 20.2858 30.5371 19.9863 30.5371C19.8073 30.5371 19.6494 30.568 19.5127 30.6299C19.376 30.6917 19.2702 30.7764 19.1953 30.8838C19.1204 30.9912 19.083 31.1117 19.083 31.2451H17.8672C17.8672 30.9619 17.9567 30.6966 18.1357 30.4492C18.318 30.1986 18.5752 29.9984 18.9072 29.8486C19.2425 29.6956 19.625 29.6191 20.0547 29.6191C20.4583 29.6191 20.8148 29.6875 21.124 29.8242C21.4333 29.9609 21.6742 30.166 21.8467 30.4395C22.0225 30.7129 22.1104 31.0465 22.1104 31.4404V33.7695ZM19.7861 34.126C20.04 34.126 20.2646 34.0658 20.46 33.9453C20.6585 33.8249 20.8034 33.68 20.8945 33.5107V32.5244H20.2598C19.8366 32.5244 19.516 32.6009 19.2979 32.7539C19.0798 32.9069 18.9707 33.1217 18.9707 33.3984C18.9707 33.6133 19.0423 33.7891 19.1855 33.9258C19.3288 34.0592 19.529 34.126 19.7861 34.126ZM26.2861 29.6191C26.8232 29.6191 27.2367 29.7754 27.5264 30.0879C27.8193 30.3971 27.9658 30.8984 27.9658 31.5918V35H26.75V31.582C26.75 31.2305 26.6735 30.9814 26.5205 30.835C26.3708 30.6852 26.1396 30.6104 25.8271 30.6104C25.5993 30.6104 25.3958 30.6657 25.2168 30.7764C25.0378 30.887 24.8945 31.0417 24.7871 31.2402V35H23.5713V29.7168H24.7139L24.7529 30.3271C24.9417 30.0993 25.1663 29.9251 25.4268 29.8047C25.6872 29.681 25.9736 29.6191 26.2861 29.6191ZM33.8262 27.5V35H32.7275L32.6689 34.4482C32.3174 34.8812 31.847 35.0977 31.2578 35.0977C30.8411 35.0977 30.4749 34.9821 30.1592 34.751C29.8467 34.5199 29.6058 34.2008 29.4365 33.7939C29.2673 33.387 29.1826 32.9281 29.1826 32.417V32.3145C29.1826 31.7806 29.2656 31.3102 29.4316 30.9033C29.6009 30.4964 29.8418 30.1807 30.1543 29.9561C30.4701 29.7314 30.8411 29.6191 31.2676 29.6191C31.821 29.6191 32.2686 29.8128 32.6104 30.2002V27.5H33.8262ZM31.5654 34.1016C32.0472 34.1016 32.3955 33.89 32.6104 33.4668V31.2305C32.3988 30.8171 32.0537 30.6104 31.5752 30.6104C31.1781 30.6104 30.8818 30.7682 30.6865 31.084C30.4945 31.3997 30.3984 31.8099 30.3984 32.3145V32.417C30.3984 32.9183 30.4928 33.3252 30.6816 33.6377C30.8737 33.9469 31.1683 34.1016 31.5654 34.1016ZM42.1484 33.3691H39.4189L38.8525 35H37.5293L40.21 27.8906H41.0498H41.3477L44.0381 35H42.7148L42.1484 33.3691ZM41.792 32.3486L40.7812 29.4336L39.7705 32.3486H41.792ZM45.0449 35V27.5H46.2607V35H45.0449ZM47.8633 35V27.5H49.0791V35H47.8633Z" fill="#027ABB"/>
<defs>
<clipPath id="clip0">
<rect width="16" height="16" fill="white" transform="translate(17)"/>
</clipPath>
</defs>
</svg>
