<svg width="24" height="24" viewBox="0 0 24 24" fill="none" xmlns="http://www.w3.org/2000/svg">
<path d="M20 19.8C20 20.4624 19.4486 21 18.7692 21H5.23077C4.55138 21 4 20.4624 4 19.8V4.2C4 3.5376 4.55138 3 5.23077 3H13.952C14.2786 3 14.5912 3.1264 14.8217 3.3512L19.6398 8.0488C19.8704 8.2736 20 8.5784 20 8.8968V19.8Z" stroke="#00838F" stroke-width="1.5" stroke-linecap="round" stroke-linejoin="round"/>
<path d="M19.9998 9H15.0767C14.3973 9 13.8459 8.4624 13.8459 7.8V3" stroke="#00838F" stroke-width="1.5" stroke-linecap="round" stroke-linejoin="round"/>
<path d="M7.24174 11.6752C7.60276 12.1368 8.17138 12.3984 8.76625 12.3752C9.70082 12.3752 10.459 11.8208 10.459 11.1376C10.459 10.4544 9.70328 9.90077 8.76953 9.90077C7.83579 9.90077 7.07764 9.34637 7.07764 8.66237C7.07764 7.97837 7.83579 7.42477 8.76953 7.42477C9.36441 7.40157 9.93384 7.66237 10.294 8.12477" stroke="#00838F" stroke-width="1.5" stroke-linecap="round" stroke-linejoin="round"/>
<path d="M8.77026 12.375V13.1998" stroke="#00838F" stroke-width="1.5" stroke-linecap="round" stroke-linejoin="round"/>
<path d="M8.77026 6.59961V7.42441" stroke="#00838F" stroke-width="1.5" stroke-linecap="round" stroke-linejoin="round"/>
<path d="M12.0005 14.3999H16.9236" stroke="#00838F" stroke-width="1.5" stroke-linecap="round" stroke-linejoin="round"/>
<path d="M7.69287 18H16.9236" stroke="#00838F" stroke-width="1.5" stroke-linecap="round" stroke-linejoin="round"/>
</svg>
