<svg width="24" height="24" viewBox="0 0 24 24" fill="none" xmlns="http://www.w3.org/2000/svg">
<path d="M11.9336 6C13.5904 6 14.9335 7.34319 14.9335 8.99998C14.9335 10.6568 13.5904 12 11.9336 12C10.2768 12 8.93359 10.6568 8.93359 8.99998C8.93359 7.34319 10.2768 6 11.9336 6Z" stroke="#00838F" stroke-width="1.5" stroke-linecap="round" stroke-linejoin="round"/>
<path d="M11.9335 3C15.2471 3 17.9335 5.68638 17.9335 8.99995C17.9335 11.7255 13.8743 18.5599 12.4335 20.7319C12.2503 21.0079 11.8783 21.0831 11.6015 20.8999C11.5351 20.8559 11.4775 20.7983 11.4335 20.7319C9.99276 18.5599 5.93359 11.7255 5.93359 8.99995C5.93359 5.68638 8.61997 3 11.9335 3Z" stroke="#00838F" stroke-width="1.5" stroke-linecap="round" stroke-linejoin="round"/>
</svg>
