<svg width="24" height="24" viewBox="0 0 24 24" fill="none" xmlns="http://www.w3.org/2000/svg">
<path d="M8.9999 7.3999C10.1599 7.3999 11.0999 8.3399 11.0999 9.4999C11.0999 10.6599 10.1599 11.5999 8.9999 11.5999C7.8399 11.5999 6.8999 10.6599 6.8999 9.4999C6.8999 8.3399 7.8399 7.3999 8.9999 7.3999Z" stroke="#00838F" stroke-width="1.5" stroke-linecap="round" stroke-linejoin="round"/>
<path d="M5.3999 15.8002C5.3999 13.8122 7.0119 12.2002 8.9999 12.2002C10.9879 12.2002 12.5999 13.8122 12.5999 15.8002H5.3999Z" stroke="#00838F" stroke-width="1.5" stroke-linecap="round" stroke-linejoin="round"/>
<path d="M13.8 9.7998H17.4" stroke="#00838F" stroke-width="1.5" stroke-linecap="round" stroke-linejoin="round"/>
<path d="M13.8 12.2002H18.6001" stroke="#00838F" stroke-width="1.5" stroke-linecap="round" stroke-linejoin="round"/>
<path d="M19.8 5H4.2C3.5376 5 3 5.5376 3 6.2V18.2C3 18.8624 3.5376 19.4 4.2 19.4H6.6C6.6 18.7376 7.1376 18.2 7.8 18.2C8.4624 18.2 9 18.7376 9 19.4H15C15 18.7376 15.5376 18.2 16.2 18.2C16.8624 18.2 17.4 18.7376 17.4 19.4H19.8C20.4624 19.4 21 18.8624 21 18.2V6.2C21 5.5376 20.4624 5 19.8 5Z" stroke="#00838F" stroke-width="1.5" stroke-linecap="round" stroke-linejoin="round"/>
</svg>
