<svg width="24" height="24" viewBox="0 0 24 24" fill="none" xmlns="http://www.w3.org/2000/svg">
<path d="M19.7336 15.7998C20.396 15.7998 20.9336 15.2622 20.9336 14.5998V12.799C20.9336 12.415 20.7808 12.047 20.5096 11.7758L18.5336 9.7998H5.33359L3.35759 11.7758C3.08639 12.047 2.93359 12.415 2.93359 12.799V14.5998C2.93359 15.2622 3.47119 15.7998 4.13359 15.7998H19.7336Z" stroke="#00838F" stroke-width="1.5" stroke-linecap="round" stroke-linejoin="round"/>
<path d="M3.0625 12.1997H6.0361C6.3545 12.1997 6.6593 12.3261 6.8841 12.5509L7.7329 13.3997" stroke="#00838F" stroke-width="1.5" stroke-linecap="round" stroke-linejoin="round"/>
<path d="M20.8047 12.1997H17.8311C17.5127 12.1997 17.2079 12.3261 16.9831 12.5509L16.1343 13.3997" stroke="#00838F" stroke-width="1.5" stroke-linecap="round" stroke-linejoin="round"/>
<path d="M5.33301 9.8L6.69301 6.168C6.95621 5.4648 7.62901 4.9992 8.38021 5H15.4858C16.2362 5 16.9074 5.4656 17.1706 6.168L18.5306 9.8H5.33301Z" stroke="#00838F" stroke-width="1.5" stroke-linecap="round" stroke-linejoin="round"/>
<path d="M5.33359 9.8001L4.13359 8.6001H2.93359" stroke="#00838F" stroke-width="1.5" stroke-linecap="round" stroke-linejoin="round"/>
<path d="M18.5337 9.8001L19.7337 8.6001H20.9337" stroke="#00838F" stroke-width="1.5" stroke-linecap="round" stroke-linejoin="round"/>
<path d="M4.1333 15.7998V16.9998C4.1333 17.6622 4.6709 18.1998 5.3333 18.1998C5.9957 18.1998 6.5333 17.6622 6.5333 16.9998V15.7998H4.1333Z" stroke="#00838F" stroke-width="1.5" stroke-linecap="round" stroke-linejoin="round"/>
<path d="M19.734 15.7998V16.9998C19.734 17.6622 19.1964 18.1998 18.534 18.1998C17.8716 18.1998 17.334 17.6622 17.334 16.9998V15.7998H19.734Z" stroke="#00838F" stroke-width="1.5" stroke-linecap="round" stroke-linejoin="round"/>
</svg>
