<svg width="81" height="21" viewBox="0 0 81 21" fill="none" xmlns="http://www.w3.org/2000/svg">
<path d="M34.6816 14.8975V15H32.3848L30.5527 11.4043H29.001V15H26.8545V5.04688H30.6143C31.3844 5.04688 32.0452 5.16309 32.5967 5.39551C33.1527 5.62337 33.5788 5.96289 33.875 6.41406C34.1712 6.86068 34.3193 7.40755 34.3193 8.05469C34.3193 8.76107 34.1667 9.33984 33.8613 9.79102C33.556 10.2376 33.1185 10.5908 32.5488 10.8506L34.6816 14.8975ZM29.001 9.66797H30.6143C31.1247 9.66797 31.512 9.54036 31.7764 9.28516C32.0407 9.02995 32.1729 8.67904 32.1729 8.23242C32.1729 7.77669 32.0407 7.42122 31.7764 7.16602C31.5166 6.91081 31.1292 6.7832 30.6143 6.7832H29.001V9.66797ZM42.0422 11.9717H37.3664C37.4439 12.432 37.6353 12.7988 37.9406 13.0723C38.246 13.3411 38.6379 13.4756 39.1164 13.4756C39.4719 13.4756 39.8 13.4095 40.1008 13.2773C40.4061 13.1406 40.6659 12.9378 40.8801 12.6689L41.8713 13.8105C41.6115 14.1842 41.231 14.4987 40.7297 14.7539C40.2329 15.0091 39.6496 15.1367 38.9797 15.1367C38.2232 15.1367 37.5646 14.9772 37.0041 14.6582C36.4481 14.3392 36.0197 13.9062 35.7189 13.3594C35.4227 12.8125 35.2746 12.2087 35.2746 11.5479V11.2881C35.2746 10.5498 35.4136 9.89128 35.6916 9.3125C35.9696 8.73372 36.3706 8.28255 36.8947 7.95898C37.4188 7.63086 38.0386 7.4668 38.7541 7.4668C39.4514 7.4668 40.0461 7.61491 40.5383 7.91113C41.0305 8.20736 41.4042 8.62891 41.6594 9.17578C41.9146 9.7181 42.0422 10.3584 42.0422 11.0967V11.9717ZM40.0188 10.4268C40.0096 10.0257 39.898 9.70898 39.6838 9.47656C39.4742 9.24414 39.1597 9.12793 38.7404 9.12793C38.3485 9.12793 38.0409 9.25781 37.8176 9.51758C37.5988 9.77734 37.4553 10.1351 37.3869 10.5908H40.0188V10.4268ZM45.39 12.04C43.64 11.6663 42.765 10.9121 42.765 9.77734C42.765 9.35807 42.8835 8.97298 43.1205 8.62207C43.362 8.27116 43.7084 7.99089 44.1596 7.78125C44.6107 7.57161 45.1371 7.4668 45.7387 7.4668C46.3721 7.4668 46.9258 7.56934 47.3998 7.77441C47.8738 7.97493 48.2383 8.25749 48.4936 8.62207C48.7488 8.9821 48.8764 9.39453 48.8764 9.85938H46.8119C46.8119 9.56315 46.723 9.33301 46.5453 9.16895C46.3676 9.00033 46.0964 8.91602 45.7318 8.91602C45.4311 8.91602 45.1895 8.98665 45.0072 9.12793C44.8295 9.26921 44.7406 9.4515 44.7406 9.6748C44.7406 9.889 44.8409 10.0622 45.0414 10.1943C45.2465 10.3265 45.5928 10.4382 46.0805 10.5293C46.6638 10.6387 47.1583 10.7822 47.5639 10.96C47.9695 11.1331 48.2908 11.3747 48.5277 11.6846C48.7693 11.9945 48.89 12.3887 48.89 12.8672C48.89 13.3001 48.7602 13.6898 48.5004 14.0361C48.2452 14.3779 47.8783 14.6468 47.3998 14.8428C46.9258 15.0387 46.3744 15.1367 45.7455 15.1367C45.0801 15.1367 44.5036 15.016 44.016 14.7744C43.5329 14.5283 43.1638 14.2139 42.9086 13.8311C42.6579 13.4482 42.5326 13.0495 42.5326 12.6348H44.4809C44.4945 12.9902 44.6221 13.2546 44.8637 13.4277C45.1052 13.5964 45.4151 13.6807 45.7934 13.6807C46.1443 13.6807 46.4132 13.6146 46.6 13.4824C46.7914 13.3457 46.8871 13.1634 46.8871 12.9355C46.8871 12.7943 46.8438 12.6758 46.7572 12.5801C46.6752 12.4798 46.5248 12.3864 46.3061 12.2998C46.0919 12.2132 45.7865 12.1266 45.39 12.04ZM56.4352 11.9717H51.7594C51.8368 12.432 52.0283 12.7988 52.3336 13.0723C52.6389 13.3411 53.0309 13.4756 53.5094 13.4756C53.8648 13.4756 54.193 13.4095 54.4937 13.2773C54.7991 13.1406 55.0589 12.9378 55.273 12.6689L56.2643 13.8105C56.0045 14.1842 55.624 14.4987 55.1227 14.7539C54.6259 15.0091 54.0426 15.1367 53.3727 15.1367C52.6161 15.1367 51.9576 14.9772 51.3971 14.6582C50.8411 14.3392 50.4127 13.9062 50.1119 13.3594C49.8157 12.8125 49.6676 12.2087 49.6676 11.5479V11.2881C49.6676 10.5498 49.8066 9.89128 50.0846 9.3125C50.3626 8.73372 50.7636 8.28255 51.2877 7.95898C51.8118 7.63086 52.4316 7.4668 53.1471 7.4668C53.8443 7.4668 54.4391 7.61491 54.9312 7.91113C55.4234 8.20736 55.7971 8.62891 56.0523 9.17578C56.3076 9.7181 56.4352 10.3584 56.4352 11.0967V11.9717ZM54.4117 10.4268C54.4026 10.0257 54.291 9.70898 54.0768 9.47656C53.8671 9.24414 53.5527 9.12793 53.1334 9.12793C52.7415 9.12793 52.4339 9.25781 52.2105 9.51758C51.9918 9.77734 51.8482 10.1351 51.7799 10.5908H54.4117V10.4268ZM60.5145 13.4414C60.7378 13.4414 60.9292 13.4255 61.0887 13.3936V14.9453C60.7332 15.0729 60.3276 15.1367 59.8719 15.1367C58.4227 15.1367 57.698 14.3984 57.698 12.9219V9.10742H56.6521V7.60352H57.698V5.77148H59.7625V7.60352H61.0066V9.10742H59.7625V12.6826C59.7625 12.9743 59.8195 13.1748 59.9334 13.2842C60.0473 13.389 60.241 13.4414 60.5145 13.4414ZM70.9152 13.0244H67.3879L66.7385 15H64.4553L68.1467 5.04688H69.5959H70.1428L73.8547 15H71.5646L70.9152 13.0244ZM70.341 11.2881L69.1447 7.6582L67.9553 11.2881H70.341ZM74.5229 15V4.5H76.5941V15H74.5229ZM78.0826 15V4.5H80.1539V15H78.0826Z" fill="#027ABB"/>
<path fill-rule="evenodd" clip-rule="evenodd" d="M15.9 5.1C14.675 3.7875 12.925 3 11 3C7.15 3 4 6.15 4 10C4 13.85 7.15 17 11 17C14.2375 17 16.95 14.725 17.7375 11.75H15.9C15.2 13.7625 13.275 15.25 11 15.25C8.1125 15.25 5.75 12.8875 5.75 10C5.75 7.1125 8.1125 4.75 11 4.75C12.4875 4.75 13.7125 5.3625 14.675 6.325L11.875 9.125H18V3L15.9 5.1Z" fill="#027ABB"/>
</svg>
