<svg width="28" height="28" viewBox="0 0 28 28" fill="none" xmlns="http://www.w3.org/2000/svg">
<path fill-rule="evenodd" clip-rule="evenodd" d="M14 28C21.732 28 28 21.732 28 14C28 6.26801 21.732 0 14 0C6.26801 0 0 6.26801 0 14C0 21.732 6.26801 28 14 28Z" fill="#31708F"/>
<path fill-rule="evenodd" clip-rule="evenodd" d="M15.75 18.6667V13.6667C15.75 12.745 14.966 12 14 12H12.25C11.284 12 10.5 12.745 10.5 13.6667C10.5 14.5883 11.284 15.3333 12.25 15.3333V20.3333C12.25 21.255 13.034 22 14 22H15.75C16.716 22 17.5 21.255 17.5 20.3333C17.5 19.4117 16.716 18.6667 15.75 18.6667Z" fill="white"/>
<path fill-rule="evenodd" clip-rule="evenodd" d="M14 9C15.1036 9 16 8.10505 16 6.99909C16 5.89495 15.1036 5 14 5C12.8964 5 12 5.89495 12 6.99909C12 8.10505 12.8964 9 14 9Z" fill="white"/>
</svg>
